<svg xmlns="http://www.w3.org/2000/svg" width="931" height="482" viewBox="0 0 931 482">
  <g id="Group_35686" data-name="Group 35686" transform="translate(-547.495 -9001.482)">
    <g id="Group_35685" data-name="Group 35685" transform="translate(547.495 9001.482)">
      <g id="Group_35651" data-name="Group 35651" transform="translate(10.325 56.812)">
        <path id="Path_37662" data-name="Path 37662" d="M-180.5,334.942c-52.371,6.678-114.2,12.107-163.776-16.252-32.853-18.785-5.89-45.176,23.488-44.039-37.068-4.452-84.121-33.488-94.456-71.686a16.358,16.358,0,0,1,11.674-19.839c3.559-.956,19.615,1.842,23.16,1.465-31.7-10.739-93.018-79.564-66.927-113.457,23.837-30.969,66.7,16.985,85.768,28.436-10.809-17.159-14.64-46.691,10.209-47.94,35.588-1.779,69.4,76.794,84.7,101,.649-10.1-.161-36.831,8.813-41.562,19.288-10.181,83.989,22.267,88.078,123.331C-169.053,252.168-163.617,307.525-180.5,334.942Z" transform="translate(453.644 78.693)" fill="#e6f6f4"/>
        <path id="Path_37663" data-name="Path 37663" d="M122.692,393.207c-41.246-14.153-97.3-33-119.255-93.051C-11.1,260.372,24.612,254.468,46.543,275.6,20.6,246.142.979,187.2,14.766,144.909c3.109-9.526,12.333-14.083,20.257-10.315,3.278,1.553,14.015,15.11,16.951,17.184C33.736,120.2,25.791,14.808,65.114,1.382c35.92-12.255,41.564,61.278,49.7,84.872,1.455-23.221,15.311-53.072,35.106-37.24,28.354,22.686,9.623,118.274,7.6,151.053,6.245-8.865,20.827-34.067,30.411-32.3,20.61,3.8,51.842,77.96-2.51,173.962C175.869,358.595,151.264,379.478,122.692,393.207Z" transform="translate(140.435 29.978) rotate(-8)" fill="#ace8df"/>
        <path id="Path_37664" data-name="Path 37664" d="M-368.306,181.585c-5.425-24.634-10.653-53.825.713-78.634,7.534-16.436,21.248-4.741,21.969,9.294.529-17.833,12.329-41.47,30.062-48.025a7.817,7.817,0,0,1,9.945,4.7c.6,1.655-.038,9.415.292,11.087,3.753-15.548,33.882-47.675,51.127-36.713,15.757,10.019-5.224,32.472-9.857,42.037,7.7-5.883,21.59-8.969,23.25,2.8,2.372,16.862-33.569,36.321-44.435,44.635,4.833-.121,17.521-1.651,20.156,2.414,5.671,8.744-7,40.924-54.917,47.2C-328.425,183.49-354.539,188.452-368.306,181.585Z" transform="translate(1020.37 89.547)" fill="#ace8df"/>
      </g>
      <path id="Path_37665" data-name="Path 37665" d="M-325.75,88.517l1.419,11.006c-4.278-.231-7.4-1.745-8.806-3.476a3.315,3.315,0,0,1-.632-3.422C-332.873,90.058-329.247,88.945-325.75,88.517Z" transform="translate(1127.982 349.242)" fill="none"/>
      <g id="Group_35653" data-name="Group 35653" transform="translate(798.208 236.795)">
        <g id="Group_35652" data-name="Group 35652" transform="translate(0 144.698)">
          <path id="Path_37666" data-name="Path 37666" d="M-337.593,114.893c5.248,6.471,15.046,10.259,26.114,10.463l2.335,18.129h43.679l3.857-22.712c-13.261-.794-37.473-6.844-56.851-37.154-8.861,1.344-18.767,5-22.114,14.544A16.9,16.9,0,0,0-337.593,114.893Zm7.211-13.159c1.67-4.76,8.392-6.824,14.877-7.611l2.635,20.41c-7.937-.428-13.729-3.225-16.336-6.437A6.212,6.212,0,0,1-330.383,101.734Z" transform="translate(341.6 -60.608)" fill="#65b8e5"/>
          <path id="Path_37667" data-name="Path 37667" d="M-337.268,103.241c.523-.075,1.059-.177,1.575-.244l-2.641-20.485a2.023,2.023,0,0,1,2-2.281h63.457a2.262,2.262,0,0,1,2.227,2.634l-9.77,57.53C-293.678,139.6-317.891,133.55-337.268,103.241Z" transform="translate(360.409 -80.23)" fill="#a3d0ec"/>
        </g>
        <path id="Path_37668" data-name="Path 37668" d="M-318.341,195.109c6.308-3.354,12.323-15.44,14.809-21.028s3.211-12.283.455-17.742c-2.322-4.617-6.783-7.795-9.56-12.154a19.725,19.725,0,0,1-2.424-15.352c1.888-7.272,7.856-13.07,9.221-20.458,1.6-8.664-3.429-16.995-5.636-25.53a40.759,40.759,0,0,1,1.134-23.927c-6.158,3.66-9.838,10.259-13.233,16.56-3.1,5.758-6.294,11.909-5.846,18.428.285,4.1,2,7.937,3.436,11.787,2.6,6.966,4.379,14.612,2.526,21.816-2.811,10.891-13.539,19.405-13.118,30.642.251,6.661,4.57,12.568,9.771,16.73,3.388,2.716,7.306,4.977,9.682,8.609s2.458,9.309-1.215,11.617" transform="translate(370.603 -58.919)" fill="#d9f0fb"/>
      </g>
      <g id="Group_35665" data-name="Group 35665" transform="translate(272.647 0)">
        <path id="Path_37669" data-name="Path 37669" d="M-340.168,30.464c5.052,11.719,8.922,23.045,10.8,34.689s2.526,23.506,5.418,34.94c2.56,10.1,6.831,19.69,11.42,29.047a6.229,6.229,0,0,1,.842,2.7c-.007,1.854-1.6,3.266-3.1,4.359-22.753,16.635-54.312,20.4-80.337,9.567" transform="translate(507.168 13.727)" fill="#373e4b"/>
        <ellipse id="Ellipse_217" data-name="Ellipse 217" cx="22.428" cy="27.886" rx="22.428" ry="27.886" transform="translate(144.993 67.596)" fill="#73787f"/>
        <path id="Path_37670" data-name="Path 37670" d="M-358.108,68.18c-2.118,11.923-3.87,25.448,3.53,35.029,1.623,2.1,3.735,4.149,3.85,6.8.149,3.476-3.171,6.029-6.281,7.584a49.579,49.579,0,0,1-39.17,2.03A6.438,6.438,0,0,1-399,117.908c-1.582-1.962-.564-4.841.407-7.163a86.311,86.311,0,0,0-.686-67.45" transform="translate(479.99 88.016)" fill="#e8a17e"/>
        <path id="Path_37671" data-name="Path 37671" d="M-370.872,54.161c-2.071,8.372-3.429,16.431-2.513,25a1.074,1.074,0,0,1-.149.842c-.272.292-.747.177-1.12.041a34.629,34.629,0,0,1-7.937-3.646c-4.067-2.77-8.854-7.869-10.945-12.323a36.52,36.52,0,0,1-3.789-18.957" transform="translate(493.813 98.565)" fill="#d88d6c"/>
        <path id="Path_37672" data-name="Path 37672" d="M-308.433,30.7c8.494,9.485,10.477,22.99,11.59,35.68.991,11.176,1.589,22.474.007,33.582s-5.486,22.1-12.67,30.724a47.027,47.027,0,0,1-10.579,9.37,27.044,27.044,0,0,1-8.881,3.958c-6.057,1.3-12.317-.441-18.21-2.349-13.424-4.352-27.248-10.239-35.538-21.659-10.8-14.89-17.939-54.067-20.743-72.244" transform="translate(458.933 15.111)" fill="#e8a17e"/>
        <path id="Path_37673" data-name="Path 37673" d="M-303.137,33.348a91.142,91.142,0,0,1-44.514,20.865c-9.492,1.562-19.168,1.6-28.789,1.4a49.418,49.418,0,0,1-10.735-1.046c-4.855-1.188-9.472-3.931-12.126-8.168s-3-10.029-.19-14.157" transform="translate(470.558 24.016)" fill="#d88d6c"/>
        <path id="Path_37674" data-name="Path 37674" d="M-352.578,31.679c23.941-11.57,58.6-9.173,76.019.794s24.634,18.889,33.725,39.666c.543,1.243,3.687,8.881,3.212,10.151a3.663,3.663,0,0,1-2.336,2.438c-21.517,8.209-40.433,9.689-63.43,10.83-7.659.38-15.433.394-22.882-1.419-10.551,35.334-5.051,60.66,12.514,93.081-11.434,4.821-55.894,7.591-77.051-8.793-5.452-4.23-10.436-9.227-13.756-15.284-8.412-15.352-4.8-34.289-.224-51.188,3.4-12.575,7.258-25.143,13.437-36.617,9.5-17.62,22.4-35.721,40.773-43.658" transform="translate(411.626 -23.956)" fill="#373e4b"/>
        <path id="Path_37675" data-name="Path 37675" d="M-358.025,42.168c-1.745,5.4-3.755,10.368-8.528,13.43-4.732,3.028-11.061,2.675-16.153.292s-9.933-8.365-13.5-12.711c12.357,1.154,25.958,1.141,38.179-1.012" transform="translate(500.921 81.491)" fill="#fff"/>
        <g id="Group_35654" data-name="Group 35654" transform="translate(120.666 88.301)">
          <path id="Path_37676" data-name="Path 37676" d="M-392.9,40.454a10.618,10.618,0,0,1,10.592-.1l1.148-1.691c-.224-.149-5.656-3.755-12.7-.02Z" transform="translate(393.855 -36.96)" fill="#161119"/>
        </g>
        <g id="Group_35655" data-name="Group 35655" transform="translate(78.811 89.088)">
          <path id="Path_37677" data-name="Path 37677" d="M-400.02,39.213l5.346-.093V37.076h-5.065Z" transform="translate(400.02 -37.076)" fill="#161119"/>
        </g>
        <path id="Path_37678" data-name="Path 37678" d="M-389.527,38.018l6.475,19.838-10.195.827" transform="translate(518.046 57.464)" fill="#d88d6c"/>
        <g id="Group_35656" data-name="Group 35656" transform="translate(81.401 74.458)">
          <path id="Path_37679" data-name="Path 37679" d="M-372.744,40.166a12.8,12.8,0,0,0-1.283-.672c-.265-.122-.53-.244-.795-.353l.292.122q-1-.418-2.037-.754a24.23,24.23,0,0,0-2.594-.672c-.564-.115-1.127-.21-1.7-.292l.326.048a24.548,24.548,0,0,0-4.943-.163c-.509.041-1.018.088-1.521.156l.326-.041a24.184,24.184,0,0,0-4.9,1.188c-.489.17-.971.36-1.446.564l.292-.129a28.813,28.813,0,0,0-5.072,2.8,1.239,1.239,0,0,1-.944.122,1.244,1.244,0,0,1-.733-.564,1.238,1.238,0,0,1-.122-.944,1.377,1.377,0,0,1,.564-.733,28.731,28.731,0,0,1,8.188-3.925,25.423,25.423,0,0,1,7.353-1,26.411,26.411,0,0,1,6.057.794,25.333,25.333,0,0,1,4.244,1.48,15.222,15.222,0,0,1,1.663.835l.021.014a1.322,1.322,0,0,1,.563.733,1.236,1.236,0,0,1-.129.944,1.187,1.187,0,0,1-.726.564,1.256,1.256,0,0,1-.951-.122Z" transform="translate(399.638 -34.922)" fill="#3e3244"/>
        </g>
        <g id="Group_35657" data-name="Group 35657" transform="translate(139.266 72.258)">
          <path id="Path_37680" data-name="Path 37680" d="M-389.088,42.191a11.208,11.208,0,0,1,1.141-.9c.238-.17.475-.339.72-.5l-.265.177c.6-.4,1.222-.767,1.86-1.107a23.309,23.309,0,0,1,2.431-1.141c.53-.217,1.073-.414,1.616-.591l-.312.1a24.523,24.523,0,0,1,4.828-1.059q.764-.081,1.528-.122l-.326.014a24.978,24.978,0,0,1,5.031.278c.509.081,1.018.177,1.521.292l-.306-.068c1.888.414-.625,1.691,2.838.788.319-.081-2.261-3.341-5.282-3.639a25.391,25.391,0,0,0-7.415.353,26.536,26.536,0,0,0-5.812,1.881,26.125,26.125,0,0,0-3.9,2.234,13.982,13.982,0,0,0-1.48,1.127l-.014.014a1.305,1.305,0,0,0-.421.828,1.252,1.252,0,0,0,.292.9,1.215,1.215,0,0,0,.822.421,1.259,1.259,0,0,0,.91-.292Z" transform="translate(391.116 -34.598)" fill="#3e3244"/>
        </g>
        <path id="Path_37681" data-name="Path 37681" d="M-383.247,41.2s-5.928-8.5-14.6-1.209" transform="translate(491.379 51.8)" fill="none" stroke="#3e3244" stroke-miterlimit="10" stroke-width="5"/>
        <path id="Path_37682" data-name="Path 37682" d="M-375.765,40.933s-5.928-8.5-14.605-1.209" transform="translate(534.699 50.237)" fill="none" stroke="#3e3244" stroke-miterlimit="10" stroke-width="5"/>
        <circle id="Ellipse_218" data-name="Ellipse 218" cx="8.763" cy="8.763" r="8.763" transform="translate(83.302 102.695)" fill="#f27b53" opacity="0.45"/>
        <circle id="Ellipse_219" data-name="Ellipse 219" cx="7.386" cy="7.386" r="7.386" transform="translate(147.734 100.664)" fill="#f27b53" opacity="0.45"/>
        <g id="Group_35658" data-name="Group 35658" transform="translate(132.073 72.26)">
          <path id="Path_37683" data-name="Path 37683" d="M-392.175,53.963A19.389,19.389,0,0,1-372.8,34.6a19.383,19.383,0,0,1,19.364,19.365A19.389,19.389,0,0,1-372.8,73.334,19.4,19.4,0,0,1-392.175,53.963Zm2.234,0A17.163,17.163,0,0,0-372.8,71.1a17.157,17.157,0,0,0,17.131-17.137A17.152,17.152,0,0,0-372.8,36.832,17.157,17.157,0,0,0-389.941,53.963Z" transform="translate(392.175 -34.598)" fill="#161119"/>
        </g>
        <g id="Group_35659" data-name="Group 35659" transform="translate(83.356 72.26)">
          <path id="Path_37684" data-name="Path 37684" d="M-399.35,53.963A19.383,19.383,0,0,1-379.985,34.6a19.389,19.389,0,0,1,19.371,19.365,19.394,19.394,0,0,1-19.371,19.371A19.389,19.389,0,0,1-399.35,53.963Zm2.234,0A17.158,17.158,0,0,0-379.985,71.1a17.163,17.163,0,0,0,17.137-17.137,17.157,17.157,0,0,0-17.137-17.131A17.152,17.152,0,0,0-397.116,53.963Z" transform="translate(399.35 -34.598)" fill="#161119"/>
        </g>
        <g id="Group_35662" data-name="Group 35662" transform="translate(55.009 119.28)">
          <g id="Group_35660" data-name="Group 35660" transform="translate(60.483 22.953)">
            <ellipse id="Ellipse_220" data-name="Ellipse 220" cx="5.27" cy="6.741" rx="5.27" ry="6.741" transform="translate(0 10.492) rotate(-84.487)" fill="#161119"/>
          </g>
          <g id="Group_35661" data-name="Group 35661">
            <path id="Path_37685" data-name="Path 37685" d="M-348.025,71.412a67.514,67.514,0,0,0,9.119.265l-.115-2.906c-35.11,1.4-62.113-26.962-62.378-27.248l-2.125,1.989C-403.267,43.784-379.9,68.336-348.025,71.412Z" transform="translate(403.525 -41.523)" fill="#161119"/>
          </g>
        </g>
        <g id="Group_35664" data-name="Group 35664" transform="translate(33.046 1.43)">
          <g id="Group_35663" data-name="Group 35663" transform="translate(15.598)">
            <path id="Path_37686" data-name="Path 37686" d="M-290.432,91.595c-2.614-19.677-12.2-41.357-27.906-52.478-14.068-9.961-32.89-10.6-48.391-4.2-13.362,5.507-22.2,17.789-26.562,32.1C-397,79.21-397.5,91.737-398.362,104.4c-.285,4.182-6.376,4.21-6.09,0,.821-12.052,1.276-24.063,4.345-35.789,4-15.257,12.181-29.264,25.435-36.93,15.779-9.126,36.685-10.1,52.981-2.057,13.254,6.539,22.943,19.283,29.094,33.216a100.718,100.718,0,0,1,8.032,27.01c.55,4.121-5.316,5.9-5.866,1.745Z" transform="translate(404.462 -24.166)" fill="#73787f"/>
          </g>
          <ellipse id="Ellipse_221" data-name="Ellipse 221" cx="22.428" cy="27.886" rx="22.428" ry="27.886" transform="translate(0 73.378)" fill="#73787f"/>
        </g>
      </g>
      <g id="Group_35682" data-name="Group 35682" transform="translate(191.233 190.624)">
        <path id="Path_37700" data-name="Path 37700" d="M-320.773,53.429c-29.373,1.243-61.156,10.11-82.659,30.16-1.813,1.691-3.612,3.558-4.4,5.914-1.161,3.442.027,7.184,1.127,10.646a217.244,217.244,0,0,1,1.942,124.138c-3,10.572-6.824,21.021-7.856,31.96s1.141,22.787,8.7,30.758a41.168,41.168,0,0,0,11.549,8.114c23.513,11.882,51.12,11.441,77.445,10.348,16.234-.672,32.625-1.521,48.248-5.961s30.629-12.833,40.121-26.012c9.8-13.6,12.86-30.873,14.109-47.583,2.825-37.955-2.322-76.019-3.035-114.069-.211-11.074.02-22.474,4.339-32.673-20.057-13.865-44.025-22.291-67.939-27.051-5.133,6.837-12.344,9.954-20.885,10.388s-15.005-2.8-20.811-9.078" transform="translate(486.826 -52.119)" fill="#29bbae"/>
        <path id="Path_37701" data-name="Path 37701" d="M-407.029,179.478c.951-10.945-6.817-23.6-4.047-34.173,7.034-26.867,20.295-53,17.443-80.751,6.03,3.021,11.5,7.021,14.605,12.975,2.553,4.9,3.212,10.6,3.273,16.153.122,11.088-1.942,22.087-2.383,33.168s.951,22.759,7.19,31.831c7.2,10.477,19.623,15.759,31.736,19a240.841,240.841,0,0,0,24.79,4.99c9.567,1.514,19.3,2.777,28.911,1.541s19.2-5.235,25.516-12.738c10.008-11.9,9.71-29.183,11.509-44.772a140.061,140.061,0,0,1,15.134-49.036c2.4-4.549,5.215-9.139,9.546-11.807l.034-.02c1.487,27.791,17.572,56.973,15.664,84.7-1.148,16.716-18.047,32.584-27.091,46.177-8.766,13.186-22.624,21.578-37.052,26.019s-29.57,5.282-44.555,5.961c-24.307,1.093-49.8,1.534-71.517-10.348a38.32,38.32,0,0,1-10.667-8.114C-405.97,202.258-407.98,190.417-407.029,179.478Z" transform="translate(493.675 19.877)" fill="#179889"/>
        <path id="Path_37702" data-name="Path 37702" d="M-329.761,54.992c-9.071,40.331-1.256,87.921,8.82,128.015,2.994,11.909,2.363,24.966-1.908,31.023-4.42,6.274-12.045,10.015-19.011,13.227-16.194,7.462-27.445,16.268-39.809,29.121-4.95,5.147-9.492,10.952-11.631,17.769s-1.521,14.829,3.035,20.329c4.359,5.262,11.556,7.442,18.387,7.435s76.958,2.784,86.457,0c13.519-3.958,25.914-15.61,33.03-27.764s6.05-36.638,4.624-50.652c-.76-7.509-2.669-14.856-4.624-22.148-8.114-30.2-19.3-56.641-29.543-86.183-4.2-12.093-11.9-25.74-19.289-36.19s-15.922-21.829-28.538-23.982" transform="translate(593.221 -35.485)" fill="#29bbae"/>
        <path id="Path_37703" data-name="Path 37703" d="M-382.6,90.1s27-6.7,37.1-.917,25.441,14.231,24.987,24.98l.007,4.407s-72.379,2.112-78.259-4.407" transform="translate(568.43 148.836)" fill="#e8a17e"/>
        <path id="Path_37704" data-name="Path 37704" d="M-320.1,54.545c-13.247,1.534-27.729,16.968-36.9,30.316S-372.4,113.3-378.568,128.269L-413.2,212.333c-3.578,8.691-7.177,17.45-8.915,26.684-1.446,7.659-6.3,23.619,0,40.935s16.777,25.116,25.217,28.328c17.816,6.769,74.41,4.209,81.92,3.93,20.729-.754,41.363-5.451,61.766-9.233a9.431,9.431,0,0,0,4.169-1.5,9.654,9.654,0,0,0,2.553-3.809l6.152-13.457c1.148-2.505,2.322-5.147,2.1-7.89-.292-3.687-3-6.674-5.717-9.187A90.793,90.793,0,0,0-268.369,251c-18.38-8.25-39.374-10.314-56.647-20.688a26.789,26.789,0,0,1-5.805-4.42c-6.369-6.763-5.989-17.647-2.417-26.215s6.07-16.75,9.581-25.353c7.794-19.12,11.692-31.6,12.12-47.943.611-23.269-1.134-49.776-8.562-71.836" transform="translate(425.27 -38.073)" fill="#29bbae"/>
      </g>
      <rect id="Rectangle_1320" data-name="Rectangle 1320" width="931" height="17.632" rx="1.248" transform="translate(931 482) rotate(-180)" fill="#e2f0fb"/>
      <g id="Group_35684" data-name="Group 35684" transform="translate(249.29 269.355)">
        <rect id="Rectangle_1321" data-name="Rectangle 1321" width="329.225" height="8.19" rx="0.206" transform="translate(329.225 195.014) rotate(-180)" fill="#373e4b"/>
        <path id="Path_37705" data-name="Path 37705" d="M-387.659,258.728h280.88L-93.21,63.714H-368.464Z" transform="translate(572.415 -63.714)" fill="#73787f"/>
        <g id="Group_35683" data-name="Group 35683" transform="translate(194.307)">
          <path id="Path_37706" data-name="Path 37706" d="M-386.252,258.728h280.88L-91.8,63.714H-367.057Z" transform="translate(386.252 -63.714)" fill="#373e4b"/>
          <circle id="Ellipse_222" data-name="Ellipse 222" cx="16.773" cy="16.773" r="16.773" transform="translate(130.452 80.734)" fill="#73787f" opacity="0.27"/>
          <path id="Path_37707" data-name="Path 37707" d="M-94.161,68.679l-11.21,161.142H-386.252l3.748-38.091C-234.663,172.617-132.836,100.5-94.161,68.679Z" transform="translate(386.253 -34.97)" fill="#373e4b" opacity="0.07"/>
        </g>
      </g>
      <g id="conversation" transform="translate(524.47 0.079)">
        <path id="Path_37930" data-name="Path 37930" d="M118.637,184H33.617A23.617,23.617,0,0,0,10,207.617v60.616a23.617,23.617,0,0,0,23.617,23.617H59.193l-.355.031,17.288,17.288.012-17.319h42.5a23.617,23.617,0,0,0,23.617-23.617V207.617A23.617,23.617,0,0,0,118.637,184Z" transform="translate(-6.064 -111.576)" fill="#a3e9e1"/>
        <path id="Path_37931" data-name="Path 37931" d="M70.064,307.04a3.935,3.935,0,0,1-2.784-1.153L51.114,289.722H27.553A27.584,27.584,0,0,1,0,262.169V201.553A27.584,27.584,0,0,1,27.553,174H67.307a3.936,3.936,0,1,1,0,7.872H27.553A19.7,19.7,0,0,0,7.872,201.553v60.616a19.7,19.7,0,0,0,19.681,19.681H53.129a3.937,3.937,0,0,1,3.61,2.365l9.395,9.394.006-7.826a3.936,3.936,0,0,1,3.936-3.933h42.5a19.7,19.7,0,0,0,19.681-19.681V235.01a3.936,3.936,0,1,1,7.872,0v27.159a27.584,27.584,0,0,1-27.553,27.553H74.008L74,303.107a3.937,3.937,0,0,1-3.935,3.933Z" transform="translate(0 -105.512)" fill="#27beb2"/>
        <path id="Path_37932" data-name="Path 37932" d="M269.236,10h-9.962A53.274,53.274,0,0,0,206,63.274h0a53.274,53.274,0,0,0,53.274,53.274h9.962A53.26,53.26,0,0,0,284.9,114.2l16.351,16.341V105.853a53.19,53.19,0,0,0,21.255-42.58h0A53.273,53.273,0,0,0,269.236,10Z" transform="translate(-124.916 -6.064)" fill="#9bd2ed"/>
        <path id="Path_37933" data-name="Path 37933" d="M295.191,128.417a3.936,3.936,0,0,1-2.783-1.152l-14.716-14.708a57.319,57.319,0,0,1-14.52,1.861h-9.962A57.21,57.21,0,0,1,253.21,0h9.962a57.274,57.274,0,0,1,57.209,57.21,56.594,56.594,0,0,1-6.217,25.959,57.757,57.757,0,0,1-15.038,18.54v22.773a3.936,3.936,0,0,1-3.935,3.936ZM278.839,104.2a3.937,3.937,0,0,1,2.783,1.152l9.632,9.627V99.789a3.937,3.937,0,0,1,1.568-3.144,49.338,49.338,0,0,0-29.65-88.773H253.21a49.338,49.338,0,0,0,0,98.675h9.962a49.351,49.351,0,0,0,14.512-2.17A3.932,3.932,0,0,1,278.839,104.2Z" transform="translate(-118.852)" fill="#9bd2ed"/>
        <g id="Group_35893" data-name="Group 35893" transform="translate(21.255 27.578)">
          <path id="Path_37934" data-name="Path 37934" d="M331.127,116a3.936,3.936,0,0,1-3.936-3.936v-9.456a7.449,7.449,0,0,1,5.868-7.3,8.794,8.794,0,1,0-10.724-8.58,3.936,3.936,0,1,1-7.872,0,16.724,16.724,0,0,1,5.3-12.184A16.536,16.536,0,0,1,332.3,70.1a16.666,16.666,0,0,1,2.764,32.82v9.142A3.935,3.935,0,0,1,331.127,116Z" transform="translate(-211.941 -70.063)" fill="#fff"/>
          <path id="Path_37935" data-name="Path 37935" d="M350.736,214.2a3.931,3.931,0,1,1,2.783-1.149A3.962,3.962,0,0,1,350.736,214.2Z" transform="translate(-231.551 -152.694)" fill="#fff"/>
          <path id="Path_37936" data-name="Path 37936" d="M140.988,317.872H57.936a3.936,3.936,0,1,1,0-7.872h83.052a3.936,3.936,0,0,1,0,7.872Z" transform="translate(-54 -215.558)" fill="#fff"/>
          <path id="Path_37937" data-name="Path 37937" d="M268.936,373.872a3.938,3.938,0,1,1,2.782-1.153A3.966,3.966,0,0,1,268.936,373.872Z" transform="translate(-181.948 -249.516)" fill="#fff"/>
          <path id="Path_37938" data-name="Path 37938" d="M125.506,373.872H57.936a3.936,3.936,0,0,1,0-7.872h67.57a3.936,3.936,0,1,1,0,7.872Z" transform="translate(-54 -249.516)" fill="#fff"/>
          <path id="Path_37939" data-name="Path 37939" d="M115.4,261.872H57.936a3.936,3.936,0,0,1,0-7.872H115.4a3.936,3.936,0,0,1,0,7.872Z" transform="translate(-54 -181.6)" fill="#fff"/>
        </g>
      </g>
    </g>
  </g>
</svg>
